# Blender 4.2.1 LTS
# www.blender.org
mtllib arrow6.mtl
o Cylinder
v 0.000000 -0.164081 6.633466
v 0.000000 -0.164082 -6.633466
v 0.142099 0.082041 6.633466
v 0.142099 0.082040 -6.633466
v -0.142099 0.082041 6.633466
v -0.142099 0.082040 -6.633466
v 0.000000 -0.319088 6.660562
v 0.276338 0.159544 6.660562
v -0.276338 0.159544 6.660562
v 0.000000 -0.164081 6.660562
v 0.142099 0.082041 6.660562
v -0.142099 0.082041 6.660562
v 0.000000 -0.030747 7.608659
v 0.026628 0.015374 7.608659
v -0.026628 0.015374 7.608659
v 0.436942 -0.003516 -6.047893
v 0.835925 -0.003516 -6.600676
v 0.436942 0.003516 -6.047893
v 0.835925 0.003516 -6.600676
v 0.012943 -0.003516 -5.447938
v 0.012943 -0.003516 -6.516758
v 0.012943 0.003516 -5.447938
v 0.012943 0.003516 -6.516758
v -0.335656 0.003516 -6.047893
v -0.734639 0.003516 -6.600676
v -0.335656 -0.003516 -6.047893
v -0.734639 -0.003516 -6.600676
v 0.088342 0.003516 -5.447938
v 0.088342 0.003516 -6.516758
v 0.088342 -0.003516 -5.447938
v 0.088342 -0.003516 -6.516758
v 0.054159 0.386299 -6.047893
v 0.054159 0.785282 -6.600676
v 0.047127 0.386299 -6.047893
v 0.047127 0.785282 -6.600676
v 0.054159 -0.037699 -5.447938
v 0.054159 -0.037699 -6.516758
v 0.047127 -0.037699 -5.447938
v 0.047127 -0.037699 -6.516758
v 0.047127 -0.386299 -6.047893
v 0.047127 -0.785282 -6.600676
v 0.054159 -0.386299 -6.047893
v 0.054159 -0.785282 -6.600676
v 0.047127 0.037699 -5.447938
v 0.047127 0.037699 -6.516758
v 0.054159 0.037699 -5.447938
v 0.054159 0.037699 -6.516758
vn 0.8660 -0.5000 -0.0000
vn -0.0000 1.0000 -0.0000
vn -0.0000 -0.0000 -1.0000
vn -0.8660 -0.5000 -0.0000
vn -0.8562 -0.4943 0.1503
vn -0.0000 -0.0000 1.0000
vn -0.0000 0.9886 0.1503
vn 0.8562 -0.4943 0.1503
vn 0.8109 -0.0000 0.5852
vn -1.0000 -0.0000 -0.0000
vn -0.0000 -1.0000 -0.0000
vn 0.8166 -0.0000 0.5771
vn -0.1014 -0.0000 -0.9948
vn -0.8109 -0.0000 0.5852
vn 1.0000 -0.0000 -0.0000
vn -0.8166 -0.0000 0.5771
vn 0.1014 -0.0000 -0.9948
vn -0.0000 0.8109 0.5852
vn -0.0000 0.8166 0.5771
vn -0.0000 -0.1014 -0.9948
vn -0.0000 -0.8109 0.5852
vn -0.0000 -0.8166 0.5771
vn -0.0000 0.1014 -0.9948
vn -0.0000 0.8109 0.5853
vn -0.0000 -0.8109 0.5853
vt 1.000000 1.000000
vt 0.666667 0.500000
vt 1.000000 0.500000
vt 0.666667 1.000000
vt 0.333333 0.500000
vt 0.457846 0.130000
vt 0.250000 0.490000
vt 0.042154 0.130000
vt 0.333333 1.000000
vt -0.000000 0.500000
vt 0.750000 0.490000
vt 0.542154 0.130000
vt 0.957846 0.130000
vt 0.625000 0.000000
vt 0.375000 0.250000
vt 0.375000 0.000000
vt 0.625000 0.500000
vt 0.375000 0.500000
vt 0.375000 0.750000
vt 0.625000 0.750000
vt 0.375000 1.000000
vt 0.125000 0.750000
vt 0.125000 0.500000
vt 0.875000 0.500000
vt 0.875000 0.750000
vt -0.000000 1.000000
vt 0.625000 0.250000
vt 0.625000 1.000000
s 0
f 2/1/1 3/2/1 1/3/1
f 4/4/2 5/5/2 3/2/2
f 4/6/3 2/7/3 6/8/3
f 6/9/4 1/10/4 5/5/4
f 1/10/4 12/5/4 5/5/4
f 7/11/5 15/12/5 9/12/5
f 5/5/2 11/2/2 3/2/2
f 3/2/1 10/3/1 1/3/1
f 8/13/3 10/11/3 11/13/3
f 8/13/3 12/12/3 9/12/3
f 9/12/3 10/11/3 7/11/3
f 13/11/6 14/13/6 15/12/6
f 9/12/7 14/13/7 8/13/7
f 7/11/8 14/13/8 13/11/8
f 17/14/9 18/15/9 16/16/9
f 18/15/2 23/17/2 22/18/2
f 23/17/10 20/19/10 22/18/10
f 21/20/11 16/21/11 20/19/11
f 22/18/12 16/22/12 18/23/12
f 19/24/13 21/20/13 23/17/13
f 25/14/14 26/15/14 24/16/14
f 26/15/11 31/17/11 30/18/11
f 31/17/15 28/19/15 30/18/15
f 29/20/2 24/21/2 28/19/2
f 30/18/16 24/22/16 26/23/16
f 27/24/17 29/20/17 31/17/17
f 33/14/18 34/15/18 32/16/18
f 34/15/10 39/17/10 38/18/10
f 39/17/11 36/19/11 38/18/11
f 37/20/15 32/21/15 36/19/15
f 38/18/19 32/22/19 34/23/19
f 35/24/20 37/20/20 39/17/20
f 41/14/21 42/15/21 40/16/21
f 42/15/15 47/17/15 46/18/15
f 47/17/2 44/19/2 46/18/2
f 45/20/10 40/21/10 44/19/10
f 46/18/22 40/22/22 42/23/22
f 47/17/23 41/25/23 45/20/23
f 2/1/1 4/4/1 3/2/1
f 4/4/2 6/9/2 5/5/2
f 6/9/4 2/26/4 1/10/4
f 1/10/4 10/10/4 12/5/4
f 7/11/5 13/11/5 15/12/5
f 5/5/2 12/5/2 11/2/2
f 3/2/1 11/2/1 10/3/1
f 8/13/3 7/11/3 10/11/3
f 8/13/3 11/13/3 12/12/3
f 9/12/3 12/12/3 10/11/3
f 9/12/7 15/12/7 14/13/7
f 7/11/8 8/13/8 14/13/8
f 17/14/9 19/27/9 18/15/9
f 18/15/2 19/27/2 23/17/2
f 23/17/10 21/20/10 20/19/10
f 21/20/11 17/28/11 16/21/11
f 22/18/12 20/19/12 16/22/12
f 19/24/13 17/25/13 21/20/13
f 25/14/14 27/27/14 26/15/14
f 26/15/11 27/27/11 31/17/11
f 31/17/15 29/20/15 28/19/15
f 29/20/2 25/28/2 24/21/2
f 30/18/16 28/19/16 24/22/16
f 27/24/17 25/25/17 29/20/17
f 33/14/24 35/27/24 34/15/24
f 34/15/10 35/27/10 39/17/10
f 39/17/11 37/20/11 36/19/11
f 37/20/15 33/28/15 32/21/15
f 38/18/19 36/19/19 32/22/19
f 35/24/20 33/25/20 37/20/20
f 41/14/25 43/27/25 42/15/25
f 42/15/15 43/27/15 47/17/15
f 47/17/2 45/20/2 44/19/2
f 45/20/10 41/28/10 40/21/10
f 46/18/22 44/19/22 40/22/22
f 47/17/23 43/24/23 41/25/23
