# Blender 4.2.1 LTS
# www.blender.org
mtllib banner.mtl
o Cylinder
v 0.000000 -2.101933 0.141952
v 0.000000 4.679794 0.141952
v -0.027693 -2.101933 0.139224
v -0.027693 4.679794 0.139224
v -0.054323 -2.101933 0.131146
v -0.054323 4.679794 0.131146
v -0.078864 -2.101933 0.118029
v -0.078864 4.679794 0.118029
v -0.100375 -2.101933 0.100375
v -0.100375 4.679794 0.100375
v -0.118029 -2.101933 0.078864
v -0.118029 4.679794 0.078864
v -0.131146 -2.101933 0.054323
v -0.131146 4.679794 0.054323
v -0.139224 -2.101933 0.027693
v -0.139224 4.679794 0.027693
v -0.141952 -2.101933 0.000000
v -0.141952 4.679794 0.000000
v -0.139224 -2.101933 -0.027693
v -0.139224 4.679794 -0.027693
v -0.131146 -2.101933 -0.054323
v -0.131146 4.679794 -0.054323
v -0.118029 -2.101933 -0.078864
v -0.118029 4.679794 -0.078864
v -0.100375 -2.101933 -0.100375
v -0.100375 4.679794 -0.100375
v -0.078864 -2.101933 -0.118029
v -0.078864 4.679794 -0.118029
v -0.054323 -2.101933 -0.131146
v -0.054323 4.679794 -0.131146
v -0.027693 -2.101933 -0.139224
v -0.027693 4.679794 -0.139224
v 0.000000 -2.101933 -0.141952
v 0.000000 4.679794 -0.141952
v 0.027693 -2.101933 -0.139224
v 0.027693 4.679794 -0.139224
v 0.054323 -2.101933 -0.131146
v 0.054323 4.679794 -0.131146
v 0.078864 -2.101933 -0.118029
v 0.078864 4.679794 -0.118029
v 0.100375 -2.101933 -0.100375
v 0.100375 4.679794 -0.100375
v 0.118029 -2.101933 -0.078864
v 0.118029 4.679794 -0.078864
v 0.131146 -2.101933 -0.054323
v 0.131146 4.679794 -0.054323
v 0.139224 -2.101933 -0.027693
v 0.139224 4.679794 -0.027693
v 0.141952 -2.101933 0.000000
v 0.141952 4.679794 0.000000
v 0.139224 -2.101933 0.027693
v 0.139224 4.679794 0.027693
v 0.131146 -2.101933 0.054323
v 0.131146 4.679794 0.054323
v 0.118029 -2.101933 0.078864
v 0.118029 4.679794 0.078864
v 0.100375 -2.101933 0.100375
v 0.100375 4.679794 0.100375
v 0.078864 -2.101933 0.118029
v 0.078864 4.679794 0.118029
v 0.054323 -2.101933 0.131146
v 0.054323 4.679794 0.131146
v 0.027693 -2.101933 0.139224
v 0.027693 4.679794 0.139224
v 0.168928 4.765521 -0.000000
v -0.973145 4.765521 0.000000
v 0.168928 4.762793 0.027693
v -0.973145 4.762793 0.027693
v 0.168928 4.754715 0.054323
v -0.973145 4.754715 0.054323
v 0.168928 4.741598 0.078864
v -0.973145 4.741598 0.078864
v 0.168928 4.723944 0.100375
v -0.973145 4.723944 0.100375
v 0.168928 4.702434 0.118029
v -0.973145 4.702433 0.118029
v 0.168928 4.677892 0.131146
v -0.973145 4.677892 0.131146
v 0.168928 4.651262 0.139224
v -0.973145 4.651262 0.139224
v 0.168928 4.623569 0.141952
v -0.973145 4.623569 0.141952
v 0.168928 4.595876 0.139224
v -0.973145 4.595876 0.139224
v 0.168928 4.569246 0.131146
v -0.973145 4.569246 0.131146
v 0.168928 4.544705 0.118029
v -0.973145 4.544705 0.118029
v 0.168928 4.523194 0.100375
v -0.973145 4.523194 0.100375
v 0.168928 4.505540 0.078864
v -0.973145 4.505540 0.078864
v 0.168928 4.492423 0.054323
v -0.973145 4.492423 0.054323
v 0.168928 4.484344 0.027693
v -0.973145 4.484344 0.027693
v 0.168928 4.481617 -0.000000
v -0.973145 4.481617 0.000000
v 0.168928 4.484344 -0.027693
v -0.973145 4.484344 -0.027693
v 0.168928 4.492423 -0.054323
v -0.973145 4.492423 -0.054323
v 0.168928 4.505540 -0.078864
v -0.973145 4.505540 -0.078864
v 0.168928 4.523194 -0.100375
v -0.973145 4.523194 -0.100375
v 0.168928 4.544705 -0.118029
v -0.973145 4.544705 -0.118029
v 0.168928 4.569246 -0.131146
v -0.973145 4.569246 -0.131146
v 0.168928 4.595876 -0.139224
v -0.973145 4.595876 -0.139224
v 0.168928 4.623569 -0.141952
v -0.973145 4.623569 -0.141952
v 0.168928 4.651262 -0.139224
v -0.973145 4.651262 -0.139224
v 0.168928 4.677892 -0.131146
v -0.973145 4.677892 -0.131146
v 0.168928 4.702434 -0.118029
v -0.973145 4.702433 -0.118029
v 0.168928 4.723944 -0.100375
v -0.973145 4.723944 -0.100375
v 0.168928 4.741598 -0.078864
v -0.973145 4.741598 -0.078864
v 0.168928 4.754715 -0.054323
v -0.973145 4.754715 -0.054323
v 0.168928 4.762793 -0.027693
v -0.973145 4.762793 -0.027693
v -0.899490 4.765521 -0.780981
v -0.899489 4.765521 0.780981
v -0.871796 4.762793 -0.780981
v -0.871796 4.762793 0.780981
v -0.845167 4.754715 -0.780981
v -0.845167 4.754715 0.780981
v -0.820626 4.741598 -0.780981
v -0.820625 4.741598 0.780981
v -0.799115 4.723944 -0.780981
v -0.799114 4.723944 0.780981
v -0.781461 4.702434 -0.780981
v -0.781461 4.702433 0.780981
v -0.768344 4.677892 -0.780981
v -0.768343 4.677892 0.780981
v -0.760266 4.651262 -0.780981
v -0.760265 4.651262 0.780981
v -0.757538 4.623569 -0.780981
v -0.757538 4.623569 0.780981
v -0.760266 4.595876 -0.780981
v -0.760265 4.595876 0.780981
v -0.768344 4.569246 -0.780981
v -0.768343 4.569246 0.780981
v -0.781461 4.544705 -0.780981
v -0.781461 4.544705 0.780981
v -0.799115 4.523194 -0.780981
v -0.799114 4.523194 0.780981
v -0.820626 4.505540 -0.780981
v -0.820625 4.505540 0.780981
v -0.845167 4.492423 -0.780981
v -0.845167 4.492423 0.780981
v -0.871796 4.484345 -0.780981
v -0.871796 4.484344 0.780981
v -0.899490 4.481617 -0.780981
v -0.899489 4.481617 0.780981
v -0.927183 4.484345 -0.780981
v -0.927183 4.484344 0.780981
v -0.953812 4.492423 -0.780981
v -0.953812 4.492423 0.780981
v -0.978354 4.505540 -0.780981
v -0.978354 4.505540 0.780981
v -0.999865 4.523194 -0.780981
v -0.999865 4.523194 0.780981
v -1.017519 4.544705 -0.780981
v -1.017518 4.544705 0.780981
v -1.030636 4.569246 -0.780981
v -1.030636 4.569246 0.780981
v -1.038714 4.595876 -0.780981
v -1.038714 4.595876 0.780981
v -1.041442 4.623569 -0.780981
v -1.041441 4.623569 0.780981
v -1.038714 4.651262 -0.780981
v -1.038714 4.651262 0.780981
v -1.030636 4.677892 -0.780981
v -1.030636 4.677892 0.780981
v -1.017519 4.702434 -0.780981
v -1.017518 4.702433 0.780981
v -0.999865 4.723944 -0.780981
v -0.999865 4.723944 0.780981
v -0.978354 4.741598 -0.780981
v -0.978354 4.741598 0.780981
v -0.953812 4.754715 -0.780981
v -0.953812 4.754715 0.780981
v -0.927183 4.762793 -0.780981
v -0.927183 4.762793 0.780981
v -0.924274 1.395862 -0.528728
v -0.924274 4.573469 -0.528728
v -0.924274 1.395862 0.528728
v -0.924274 4.573469 0.528728
v -0.849511 1.395862 -0.528728
v -0.849511 4.573469 -0.528728
v -0.849511 1.395862 0.528728
v -0.849511 4.573469 0.528728
vn -0.0980 -0.0000 0.9952
vn -0.2903 -0.0000 0.9569
vn -0.4714 -0.0000 0.8819
vn -0.6344 -0.0000 0.7730
vn -0.7730 -0.0000 0.6344
vn -0.8819 -0.0000 0.4714
vn -0.9569 -0.0000 0.2903
vn -0.9952 -0.0000 0.0980
vn -0.9952 -0.0000 -0.0980
vn -0.9569 -0.0000 -0.2903
vn -0.8819 -0.0000 -0.4714
vn -0.7730 -0.0000 -0.6344
vn -0.6344 -0.0000 -0.7730
vn -0.4714 -0.0000 -0.8819
vn -0.2903 -0.0000 -0.9569
vn -0.0980 -0.0000 -0.9952
vn 0.0980 -0.0000 -0.9952
vn 0.2903 -0.0000 -0.9569
vn 0.4714 -0.0000 -0.8819
vn 0.6344 -0.0000 -0.7730
vn 0.7730 -0.0000 -0.6344
vn 0.8819 -0.0000 -0.4714
vn 0.9569 -0.0000 -0.2903
vn 0.9952 -0.0000 -0.0980
vn 0.9952 -0.0000 0.0980
vn 0.9569 -0.0000 0.2903
vn 0.8819 -0.0000 0.4714
vn 0.7730 -0.0000 0.6344
vn 0.6344 -0.0000 0.7730
vn 0.4714 -0.0000 0.8819
vn -0.0000 1.0000 -0.0000
vn 0.2903 -0.0000 0.9569
vn 0.0980 -0.0000 0.9952
vn -0.0000 -1.0000 -0.0000
vn -0.0000 0.9952 0.0980
vn -0.0000 0.9569 0.2903
vn -0.0000 0.8819 0.4714
vn -0.0000 0.7730 0.6344
vn -0.0000 0.6344 0.7730
vn -0.0000 0.4714 0.8819
vn -0.0000 0.2903 0.9569
vn -0.0000 0.0980 0.9952
vn -0.0000 -0.0980 0.9952
vn -0.0000 -0.2903 0.9569
vn -0.0000 -0.4714 0.8819
vn -0.0000 -0.6344 0.7730
vn -0.0000 -0.7730 0.6344
vn -0.0000 -0.8819 0.4714
vn -0.0000 -0.9569 0.2903
vn -0.0000 -0.9952 0.0980
vn -0.0000 -0.9952 -0.0980
vn -0.0000 -0.9569 -0.2903
vn -0.0000 -0.8819 -0.4714
vn -0.0000 -0.7730 -0.6344
vn -0.0000 -0.6344 -0.7730
vn -0.0000 -0.4714 -0.8819
vn -0.0000 -0.2903 -0.9569
vn -0.0000 -0.0980 -0.9952
vn -0.0000 0.0980 -0.9952
vn -0.0000 0.2903 -0.9569
vn -0.0000 0.4714 -0.8819
vn -0.0000 0.6344 -0.7730
vn -0.0000 0.7730 -0.6344
vn -0.0000 0.8819 -0.4714
vn -1.0000 -0.0000 -0.0000
vn -0.0000 0.9569 -0.2903
vn -0.0000 0.9952 -0.0980
vn 1.0000 -0.0000 -0.0000
vn 0.0980 0.9952 -0.0000
vn 0.2903 0.9569 -0.0000
vn 0.4714 0.8819 -0.0000
vn 0.6344 0.7730 -0.0000
vn 0.7730 0.6344 -0.0000
vn 0.8819 0.4714 -0.0000
vn 0.9569 0.2903 -0.0000
vn 0.9952 0.0980 -0.0000
vn 0.9952 -0.0980 -0.0000
vn 0.9569 -0.2903 -0.0000
vn 0.8819 -0.4714 -0.0000
vn 0.7730 -0.6344 -0.0000
vn 0.6344 -0.7730 -0.0000
vn 0.4714 -0.8819 -0.0000
vn 0.2903 -0.9569 -0.0000
vn 0.0980 -0.9952 -0.0000
vn -0.0980 -0.9952 -0.0000
vn -0.2903 -0.9569 -0.0000
vn -0.4714 -0.8819 -0.0000
vn -0.6344 -0.7730 -0.0000
vn -0.7730 -0.6344 -0.0000
vn -0.8819 -0.4714 -0.0000
vn -0.9569 -0.2903 -0.0000
vn -0.9952 -0.0980 -0.0000
vn -0.9952 0.0980 -0.0000
vn -0.9569 0.2903 -0.0000
vn -0.8819 0.4714 -0.0000
vn -0.7730 0.6344 -0.0000
vn -0.6344 0.7730 -0.0000
vn -0.4714 0.8819 -0.0000
vn -0.0000 -0.0000 1.0000
vn -0.2903 0.9569 -0.0000
vn -0.0980 0.9952 -0.0000
vn -0.0000 -0.0000 -1.0000
vn 0.0001 1.0000 -0.0000
vn -0.0002 1.0000 -0.0000
vn -0.0001 1.0000 -0.0000
vn 0.0002 1.0000 -0.0000
vn -0.0001 -1.0000 -0.0000
vn 0.0001 -1.0000 -0.0000
vt 1.000000 1.000000
vt 0.968750 0.500000
vt 1.000000 0.500000
vt 0.968750 1.000000
vt 0.937500 0.500000
vt 0.937500 1.000000
vt 0.906250 0.500000
vt 0.906250 1.000000
vt 0.875000 0.500000
vt 0.875000 1.000000
vt 0.843750 0.500000
vt 0.843750 1.000000
vt 0.812500 0.500000
vt 0.812500 1.000000
vt 0.781250 0.500000
vt 0.781250 1.000000
vt 0.750000 0.500000
vt 0.750000 1.000000
vt 0.718750 0.500000
vt 0.718750 1.000000
vt 0.687500 0.500000
vt 0.687500 1.000000
vt 0.656250 0.500000
vt 0.656250 1.000000
vt 0.625000 0.500000
vt 0.625000 1.000000
vt 0.593750 0.500000
vt 0.593750 1.000000
vt 0.562500 0.500000
vt 0.562500 1.000000
vt 0.531250 0.500000
vt 0.531250 1.000000
vt 0.500000 0.500000
vt 0.500000 1.000000
vt 0.468750 0.500000
vt 0.468750 1.000000
vt 0.437500 0.500000
vt 0.437500 1.000000
vt 0.406250 0.500000
vt 0.406250 1.000000
vt 0.375000 0.500000
vt 0.375000 1.000000
vt 0.343750 0.500000
vt 0.343750 1.000000
vt 0.312500 0.500000
vt 0.312500 1.000000
vt 0.281250 0.500000
vt 0.281250 1.000000
vt 0.250000 0.500000
vt 0.250000 1.000000
vt 0.218750 0.500000
vt 0.218750 1.000000
vt 0.187500 0.500000
vt 0.187500 1.000000
vt 0.156250 0.500000
vt 0.156250 1.000000
vt 0.125000 0.500000
vt 0.125000 1.000000
vt 0.093750 0.500000
vt 0.093750 1.000000
vt 0.062500 0.500000
vt 0.158156 0.028269
vt 0.471731 0.158156
vt 0.341844 0.471731
vt 0.062500 1.000000
vt 0.031250 0.500000
vt 0.031250 1.000000
vt 0.000000 0.500000
vt 0.796822 0.014612
vt 0.514612 0.203178
vt 0.703178 0.485388
vt 0.625000 0.000000
vt 0.375000 0.250000
vt 0.375000 0.000000
vt 0.625000 0.250000
vt 0.375000 0.750000
vt 0.625000 0.750000
vt 0.125000 0.750000
vt 0.296822 0.485388
vt 0.250000 0.490000
vt 0.203178 0.485388
vt 0.158156 0.471731
vt 0.116663 0.449553
vt 0.080294 0.419706
vt 0.050447 0.383337
vt 0.028269 0.341844
vt 0.014612 0.296822
vt 0.010000 0.250000
vt 0.014612 0.203178
vt 0.028269 0.158156
vt 0.050447 0.116663
vt 0.080294 0.080294
vt 0.116663 0.050447
vt 0.203178 0.014612
vt 0.250000 0.010000
vt 0.296822 0.014612
vt 0.341844 0.028269
vt 0.383337 0.050447
vt 0.419706 0.080294
vt 0.449553 0.116663
vt 0.485388 0.203178
vt 0.490000 0.250000
vt 0.485388 0.296822
vt 0.471731 0.341844
vt 0.449553 0.383337
vt 0.419706 0.419706
vt 0.383337 0.449553
vt 0.000000 1.000000
vt 0.750000 0.490000
vt 0.796822 0.485388
vt 0.841844 0.471731
vt 0.883337 0.449553
vt 0.919706 0.419706
vt 0.949553 0.383337
vt 0.971731 0.341844
vt 0.985388 0.296822
vt 0.990000 0.250000
vt 0.985388 0.203178
vt 0.971731 0.158156
vt 0.949553 0.116663
vt 0.919706 0.080294
vt 0.883337 0.050447
vt 0.841844 0.028269
vt 0.750000 0.010000
vt 0.703178 0.014612
vt 0.658156 0.028269
vt 0.616663 0.050447
vt 0.580294 0.080294
vt 0.550447 0.116663
vt 0.528269 0.158156
vt 0.510000 0.250000
vt 0.514612 0.296822
vt 0.528269 0.341844
vt 0.550447 0.383337
vt 0.580294 0.419706
vt 0.616663 0.449553
vt 0.658156 0.471731
vt 0.875000 0.750000
s 0
f 2/1/1 3/2/1 1/3/1
f 4/4/2 5/5/2 3/2/2
f 6/6/3 7/7/3 5/5/3
f 8/8/4 9/9/4 7/7/4
f 10/10/5 11/11/5 9/9/5
f 12/12/6 13/13/6 11/11/6
f 14/14/7 15/15/7 13/13/7
f 16/16/8 17/17/8 15/15/8
f 18/18/9 19/19/9 17/17/9
f 20/20/10 21/21/10 19/19/10
f 22/22/11 23/23/11 21/21/11
f 24/24/12 25/25/12 23/23/12
f 26/26/13 27/27/13 25/25/13
f 28/28/14 29/29/14 27/27/14
f 30/30/15 31/31/15 29/29/15
f 32/32/16 33/33/16 31/31/16
f 34/34/17 35/35/17 33/33/17
f 36/36/18 37/37/18 35/35/18
f 38/38/19 39/39/19 37/37/19
f 40/40/20 41/41/20 39/39/20
f 42/42/21 43/43/21 41/41/21
f 44/44/22 45/45/22 43/43/22
f 46/46/23 47/47/23 45/45/23
f 48/48/24 49/49/24 47/47/24
f 50/50/25 51/51/25 49/49/25
f 52/52/26 53/53/26 51/51/26
f 54/54/27 55/55/27 53/53/27
f 56/56/28 57/57/28 55/55/28
f 58/58/29 59/59/29 57/57/29
f 60/60/30 61/61/30 59/59/30
f 38/62/31 22/63/31 6/64/31
f 62/65/32 63/66/32 61/61/32
f 64/67/33 1/68/33 63/66/33
f 31/69/34 47/70/34 63/71/34
f 66/1/35 67/2/35 65/3/35
f 68/4/36 69/5/36 67/2/36
f 70/6/37 71/7/37 69/5/37
f 72/8/38 73/9/38 71/7/38
f 74/10/39 75/11/39 73/9/39
f 76/12/40 77/13/40 75/11/40
f 78/14/41 79/15/41 77/13/41
f 80/16/42 81/17/42 79/15/42
f 82/18/43 83/19/43 81/17/43
f 84/20/44 85/21/44 83/19/44
f 86/22/45 87/23/45 85/21/45
f 88/24/46 89/25/46 87/23/46
f 90/26/47 91/27/47 89/25/47
f 92/28/48 93/29/48 91/27/48
f 94/30/49 95/31/49 93/29/49
f 96/32/50 97/33/50 95/31/50
f 97/33/51 100/36/51 99/35/51
f 100/36/52 101/37/52 99/35/52
f 102/38/53 103/39/53 101/37/53
f 104/40/54 105/41/54 103/39/54
f 106/42/55 107/43/55 105/41/55
f 108/44/56 109/45/56 107/43/56
f 110/46/57 111/47/57 109/45/57
f 112/48/58 113/49/58 111/47/58
f 114/50/59 115/51/59 113/49/59
f 116/52/60 117/53/60 115/51/60
f 118/54/61 119/55/61 117/53/61
f 120/56/62 121/57/62 119/55/62
f 122/58/63 123/59/63 121/57/63
f 124/60/64 125/61/64 123/59/64
f 102/62/65 86/63/65 70/64/65
f 126/65/66 127/66/66 125/61/66
f 128/67/67 65/68/67 127/66/67
f 95/69/68 111/70/68 127/71/68
f 130/1/69 131/2/69 129/3/69
f 132/4/70 133/5/70 131/2/70
f 134/6/71 135/7/71 133/5/71
f 136/8/72 137/9/72 135/7/72
f 137/9/73 140/12/73 139/11/73
f 140/12/74 141/13/74 139/11/74
f 142/14/75 143/15/75 141/13/75
f 144/16/76 145/17/76 143/15/76
f 146/18/77 147/19/77 145/17/77
f 148/20/78 149/21/78 147/19/78
f 150/22/79 151/23/79 149/21/79
f 152/24/80 153/25/80 151/23/80
f 154/26/81 155/27/81 153/25/81
f 156/28/82 157/29/82 155/27/82
f 158/30/83 159/31/83 157/29/83
f 160/32/84 161/33/84 159/31/84
f 162/34/85 163/35/85 161/33/85
f 164/36/86 165/37/86 163/35/86
f 166/38/87 167/39/87 165/37/87
f 168/40/88 169/41/88 167/39/88
f 170/42/89 171/43/89 169/41/89
f 172/44/90 173/45/90 171/43/90
f 174/46/91 175/47/91 173/45/91
f 176/48/92 177/49/92 175/47/92
f 178/50/93 179/51/93 177/49/93
f 180/52/94 181/53/94 179/51/94
f 182/54/95 183/55/95 181/53/95
f 184/56/96 185/57/96 183/55/96
f 186/58/97 187/59/97 185/57/97
f 188/60/98 189/61/98 187/59/98
f 166/62/99 150/63/99 134/64/99
f 190/65/100 191/66/100 189/61/100
f 192/67/101 129/68/101 191/66/101
f 159/69/102 175/70/102 191/71/102
f 194/72/68 195/73/68 193/74/68
f 196/75/102 199/41/102 195/73/102
f 200/25/65 197/76/65 199/41/65
f 198/77/99 193/42/99 197/76/99
f 199/41/31 193/78/31 195/57/31
f 196/9/34 198/77/34 200/25/34
f 2/1/1 4/4/1 3/2/1
f 4/4/2 6/6/2 5/5/2
f 6/6/3 8/8/3 7/7/3
f 8/8/4 10/10/4 9/9/4
f 10/10/5 12/12/5 11/11/5
f 12/12/6 14/14/6 13/13/6
f 14/14/7 16/16/7 15/15/7
f 16/16/8 18/18/8 17/17/8
f 18/18/9 20/20/9 19/19/9
f 20/20/10 22/22/10 21/21/10
f 22/22/11 24/24/11 23/23/11
f 24/24/12 26/26/12 25/25/12
f 26/26/13 28/28/13 27/27/13
f 28/28/14 30/30/14 29/29/14
f 30/30/15 32/32/15 31/31/15
f 32/32/16 34/34/16 33/33/16
f 34/34/17 36/36/17 35/35/17
f 36/36/18 38/38/18 37/37/18
f 38/38/19 40/40/19 39/39/19
f 40/40/20 42/42/20 41/41/20
f 42/42/21 44/44/21 43/43/21
f 44/44/22 46/46/22 45/45/22
f 46/46/23 48/48/23 47/47/23
f 48/48/24 50/50/24 49/49/24
f 50/50/25 52/52/25 51/51/25
f 52/52/26 54/54/26 53/53/26
f 54/54/27 56/56/27 55/55/27
f 56/56/28 58/58/28 57/57/28
f 58/58/29 60/60/29 59/59/29
f 60/60/30 62/65/30 61/61/30
f 6/64/31 4/79/31 2/80/31
f 2/80/31 64/81/31 62/82/31
f 62/82/31 60/83/31 58/84/31
f 58/84/103 56/85/103 54/86/103
f 54/86/31 52/87/31 50/88/31
f 50/88/104 48/89/104 46/90/104
f 46/90/103 44/91/103 42/92/103
f 42/92/31 40/93/31 38/62/31
f 38/62/31 36/94/31 34/95/31
f 34/95/31 32/96/31 30/97/31
f 30/97/31 28/98/31 26/99/31
f 26/99/105 24/100/105 22/63/105
f 22/63/106 20/101/106 18/102/106
f 18/102/31 16/103/31 14/104/31
f 14/104/105 12/105/105 10/106/105
f 10/106/31 8/107/31 6/64/31
f 6/64/31 2/80/31 62/82/31
f 62/82/31 58/84/31 54/86/31
f 54/86/31 50/88/31 46/90/31
f 46/90/31 42/92/31 38/62/31
f 38/62/31 34/95/31 30/97/31
f 30/97/31 26/99/31 22/63/31
f 22/63/31 18/102/31 14/104/31
f 14/104/31 10/106/31 6/64/31
f 6/64/31 62/82/31 54/86/31
f 54/86/31 46/90/31 38/62/31
f 38/62/31 30/97/31 22/63/31
f 22/63/31 14/104/31 6/64/31
f 6/64/31 54/86/31 38/62/31
f 62/65/32 64/67/32 63/66/32
f 64/67/33 2/108/33 1/68/33
f 63/71/34 1/109/34 3/110/34
f 3/110/34 5/111/34 7/112/34
f 7/112/107 9/113/107 11/114/107
f 11/114/108 13/115/108 15/116/108
f 15/116/34 17/117/34 19/118/34
f 19/118/107 21/119/107 23/120/107
f 23/120/107 25/121/107 27/122/107
f 27/122/34 29/123/34 31/69/34
f 31/69/34 33/124/34 35/125/34
f 35/125/34 37/126/34 39/127/34
f 39/127/108 41/128/108 43/129/108
f 43/129/108 45/130/108 47/70/108
f 47/70/34 49/131/34 51/132/34
f 51/132/107 53/133/107 55/134/107
f 55/134/108 57/135/108 59/136/108
f 59/136/34 61/137/34 63/71/34
f 63/71/34 3/110/34 7/112/34
f 7/112/34 11/114/34 15/116/34
f 15/116/34 19/118/34 23/120/34
f 23/120/34 27/122/34 31/69/34
f 31/69/34 35/125/34 39/127/34
f 39/127/34 43/129/34 47/70/34
f 47/70/34 51/132/34 55/134/34
f 55/134/34 59/136/34 63/71/34
f 63/71/34 7/112/34 15/116/34
f 15/116/34 23/120/34 31/69/34
f 31/69/34 39/127/34 47/70/34
f 47/70/34 55/134/34 63/71/34
f 63/71/34 15/116/34 31/69/34
f 66/1/35 68/4/35 67/2/35
f 68/4/36 70/6/36 69/5/36
f 70/6/37 72/8/37 71/7/37
f 72/8/38 74/10/38 73/9/38
f 74/10/39 76/12/39 75/11/39
f 76/12/40 78/14/40 77/13/40
f 78/14/41 80/16/41 79/15/41
f 80/16/42 82/18/42 81/17/42
f 82/18/43 84/20/43 83/19/43
f 84/20/44 86/22/44 85/21/44
f 86/22/45 88/24/45 87/23/45
f 88/24/46 90/26/46 89/25/46
f 90/26/47 92/28/47 91/27/47
f 92/28/48 94/30/48 93/29/48
f 94/30/49 96/32/49 95/31/49
f 96/32/50 98/34/50 97/33/50
f 97/33/51 98/34/51 100/36/51
f 100/36/52 102/38/52 101/37/52
f 102/38/53 104/40/53 103/39/53
f 104/40/54 106/42/54 105/41/54
f 106/42/55 108/44/55 107/43/55
f 108/44/56 110/46/56 109/45/56
f 110/46/57 112/48/57 111/47/57
f 112/48/58 114/50/58 113/49/58
f 114/50/59 116/52/59 115/51/59
f 116/52/60 118/54/60 117/53/60
f 118/54/61 120/56/61 119/55/61
f 120/56/62 122/58/62 121/57/62
f 122/58/63 124/60/63 123/59/63
f 124/60/64 126/65/64 125/61/64
f 70/64/65 68/79/65 66/80/65
f 66/80/65 128/81/65 126/82/65
f 126/82/65 124/83/65 122/84/65
f 122/84/65 120/85/65 118/86/65
f 118/86/65 116/87/65 114/88/65
f 114/88/65 112/89/65 110/90/65
f 110/90/65 108/91/65 106/92/65
f 106/92/65 104/93/65 102/62/65
f 102/62/65 100/94/65 98/95/65
f 98/95/65 96/96/65 94/97/65
f 94/97/65 92/98/65 90/99/65
f 90/99/65 88/100/65 86/63/65
f 86/63/65 84/101/65 82/102/65
f 82/102/65 80/103/65 78/104/65
f 78/104/65 76/105/65 74/106/65
f 74/106/65 72/107/65 70/64/65
f 70/64/65 66/80/65 126/82/65
f 126/82/65 122/84/65 118/86/65
f 118/86/65 114/88/65 110/90/65
f 110/90/65 106/92/65 102/62/65
f 102/62/65 98/95/65 94/97/65
f 94/97/65 90/99/65 86/63/65
f 86/63/65 82/102/65 78/104/65
f 78/104/65 74/106/65 70/64/65
f 70/64/65 126/82/65 118/86/65
f 118/86/65 110/90/65 102/62/65
f 102/62/65 94/97/65 86/63/65
f 86/63/65 78/104/65 70/64/65
f 70/64/65 118/86/65 102/62/65
f 126/65/66 128/67/66 127/66/66
f 128/67/67 66/108/67 65/68/67
f 127/71/68 65/109/68 67/110/68
f 67/110/68 69/111/68 71/112/68
f 71/112/68 73/113/68 75/114/68
f 75/114/68 77/115/68 79/116/68
f 79/116/68 81/117/68 83/118/68
f 83/118/68 85/119/68 87/120/68
f 87/120/68 89/121/68 91/122/68
f 91/122/68 93/123/68 95/69/68
f 95/69/68 97/124/68 99/125/68
f 99/125/68 101/126/68 103/127/68
f 103/127/68 105/128/68 107/129/68
f 107/129/68 109/130/68 111/70/68
f 111/70/68 113/131/68 115/132/68
f 115/132/68 117/133/68 119/134/68
f 119/134/68 121/135/68 123/136/68
f 123/136/68 125/137/68 127/71/68
f 127/71/68 67/110/68 71/112/68
f 71/112/68 75/114/68 79/116/68
f 79/116/68 83/118/68 87/120/68
f 87/120/68 91/122/68 95/69/68
f 95/69/68 99/125/68 103/127/68
f 103/127/68 107/129/68 111/70/68
f 111/70/68 115/132/68 119/134/68
f 119/134/68 123/136/68 127/71/68
f 127/71/68 71/112/68 79/116/68
f 79/116/68 87/120/68 95/69/68
f 95/69/68 103/127/68 111/70/68
f 111/70/68 119/134/68 127/71/68
f 127/71/68 79/116/68 95/69/68
f 130/1/69 132/4/69 131/2/69
f 132/4/70 134/6/70 133/5/70
f 134/6/71 136/8/71 135/7/71
f 136/8/72 138/10/72 137/9/72
f 137/9/73 138/10/73 140/12/73
f 140/12/74 142/14/74 141/13/74
f 142/14/75 144/16/75 143/15/75
f 144/16/76 146/18/76 145/17/76
f 146/18/77 148/20/77 147/19/77
f 148/20/78 150/22/78 149/21/78
f 150/22/79 152/24/79 151/23/79
f 152/24/80 154/26/80 153/25/80
f 154/26/81 156/28/81 155/27/81
f 156/28/82 158/30/82 157/29/82
f 158/30/83 160/32/83 159/31/83
f 160/32/84 162/34/84 161/33/84
f 162/34/85 164/36/85 163/35/85
f 164/36/86 166/38/86 165/37/86
f 166/38/87 168/40/87 167/39/87
f 168/40/88 170/42/88 169/41/88
f 170/42/89 172/44/89 171/43/89
f 172/44/90 174/46/90 173/45/90
f 174/46/91 176/48/91 175/47/91
f 176/48/92 178/50/92 177/49/92
f 178/50/93 180/52/93 179/51/93
f 180/52/94 182/54/94 181/53/94
f 182/54/95 184/56/95 183/55/95
f 184/56/96 186/58/96 185/57/96
f 186/58/97 188/60/97 187/59/97
f 188/60/98 190/65/98 189/61/98
f 134/64/99 132/79/99 130/80/99
f 130/80/99 192/81/99 190/82/99
f 190/82/99 188/83/99 186/84/99
f 186/84/99 184/85/99 182/86/99
f 182/86/99 180/87/99 178/88/99
f 178/88/99 176/89/99 174/90/99
f 174/90/99 172/91/99 170/92/99
f 170/92/99 168/93/99 166/62/99
f 166/62/99 164/94/99 162/95/99
f 162/95/99 160/96/99 158/97/99
f 158/97/99 156/98/99 154/99/99
f 154/99/99 152/100/99 150/63/99
f 150/63/99 148/101/99 146/102/99
f 146/102/99 144/103/99 142/104/99
f 142/104/99 140/105/99 138/106/99
f 138/106/99 136/107/99 134/64/99
f 134/64/99 130/80/99 190/82/99
f 190/82/99 186/84/99 182/86/99
f 182/86/99 178/88/99 174/90/99
f 174/90/99 170/92/99 166/62/99
f 166/62/99 162/95/99 158/97/99
f 158/97/99 154/99/99 150/63/99
f 150/63/99 146/102/99 142/104/99
f 142/104/99 138/106/99 134/64/99
f 134/64/99 190/82/99 182/86/99
f 182/86/99 174/90/99 166/62/99
f 166/62/99 158/97/99 150/63/99
f 150/63/99 142/104/99 134/64/99
f 134/64/99 182/86/99 166/62/99
f 190/65/100 192/67/100 191/66/100
f 192/67/101 130/108/101 129/68/101
f 191/71/102 129/109/102 131/110/102
f 131/110/102 133/111/102 135/112/102
f 135/112/102 137/113/102 139/114/102
f 139/114/102 141/115/102 143/116/102
f 143/116/102 145/117/102 147/118/102
f 147/118/102 149/119/102 151/120/102
f 151/120/102 153/121/102 155/122/102
f 155/122/102 157/123/102 159/69/102
f 159/69/102 161/124/102 163/125/102
f 163/125/102 165/126/102 167/127/102
f 167/127/102 169/128/102 171/129/102
f 171/129/102 173/130/102 175/70/102
f 175/70/102 177/131/102 179/132/102
f 179/132/102 181/133/102 183/134/102
f 183/134/102 185/135/102 187/136/102
f 187/136/102 189/137/102 191/71/102
f 191/71/102 131/110/102 135/112/102
f 135/112/102 139/114/102 143/116/102
f 143/116/102 147/118/102 151/120/102
f 151/120/102 155/122/102 159/69/102
f 159/69/102 163/125/102 167/127/102
f 167/127/102 171/129/102 175/70/102
f 175/70/102 179/132/102 183/134/102
f 183/134/102 187/136/102 191/71/102
f 191/71/102 135/112/102 143/116/102
f 143/116/102 151/120/102 159/69/102
f 159/69/102 167/127/102 175/70/102
f 175/70/102 183/134/102 191/71/102
f 191/71/102 143/116/102 159/69/102
f 194/72/68 196/75/68 195/73/68
f 196/75/102 200/25/102 199/41/102
f 200/25/65 198/77/65 197/76/65
f 198/77/99 194/26/99 193/42/99
f 199/41/31 197/76/31 193/78/31
f 196/9/34 194/138/34 198/77/34
